<?xml version="1.0" encoding="utf-8"?>
<svg viewBox="-1008.3 -224.305 584 784.086" width="584" height="784.086" xmlns="http://www.w3.org/2000/svg">
  <path style="fill: rgb(255, 222, 87); stroke-width: 6px; stroke: rgb(255, 222, 87);" d="M -896.375 31.529 C -855.127 29.328 -781.166 30.765 -767.218 30.956 C -753.27 31.147 -751.589 32.602 -746.011 36.879 C -742.576 39.512 -740.133 44.015 -740.087 48.343 C -738.991 150.869 -739.132 342.96 -739.132 342.96 C -739.132 342.96 -918.156 342.769 -917.774 342.577 C -917.392 342.385 -919.969 147.52 -919.302 52.357 C -919.262 46.722 -915.762 40.746 -911.66 37.073 C -908.014 33.808 -901.381 31.796 -896.375 31.529 Z" transform="matrix(1, 0, 0, 1, 2.2737367544323206e-13, 0)"/>
  <path d="M -821.7 -222.519 C -830.4 -219.119 -909.1 -21.119 -909.8 -20.019 C -910.4 -18.919 -913.762 -10.933 -913.762 -10.933 C -913.762 -10.933 -911.269 -11.91 -906.491 -16.119 C -897.948 -23.644 -878.8 -34.719 -864.8 -38.519 C -853.9 -41.519 -847.3 -42.319 -809.8 -44.919 C -768.7 -47.919 -750 -49.519 -749.4 -50.119 C -749.1 -50.319 -748.8 -52.819 -748.6 -55.519 C -748.2 -61.819 -745.6 -67.119 -740.4 -71.819 C -733.7 -77.919 -731 -78.819 -718.6 -79.319 C -705.8 -79.819 -700.7 -78.619 -694.2 -73.419 C -688.7 -69.119 -685.6 -63.219 -684.8 -55.919 L -684.1 -49.819 C -684.1 -49.819 -636.481 -46.549 -624.081 -45.749 C -594.381 -43.649 -584.964 -40.877 -573.337 -38.06 C -558.844 -34.548 -538.7 -25.719 -525.4 -14.919 L -522 -12.119 L -523.778 -17.28 C -524.378 -20.28 -592.2 -193.319 -593.3 -196.019 C -594.4 -198.819 -600.7 -213.519 -604 -216.619 C -612.3 -224.619 -602.6 -224.019 -715.8 -224.219 C -813.3 -224.419 -817 -224.419 -821.7 -222.519 Z M -617.8 -204.019 C -617.8 -204.019 -594.3 -94.619 -594.3 -94.219 C -594.3 -93.819 -839.2 -94.019 -839.2 -94.019 C -839.2 -94.019 -816.2 -200.819 -815.7 -202.819 C -815.2 -204.419 -809.8 -204.519 -716.5 -204.319 L -617.8 -204.019 Z" style="fill: rgb(100, 100, 100); stroke-linecap: round; stroke-width: 6px; stroke: rgba(0, 0, 0, 0.247);" fill="#000000" transform="matrix(1, 0, 0, 1, 2.2737367544323206e-13, 0)"/>
  <path style="fill: rgb(255, 222, 87); stroke-width: 6px; stroke: rgb(255, 222, 87);" d="M -697.095 340.825 C -697.095 340.825 -697.095 51.314 -697.095 50.415 C -697.095 49.516 -692.951 37.808 -688.106 33.774 C -683.627 30.044 -671.92 28.387 -671.47 28.387 C -671.021 28.387 -590.801 26.075 -541.017 28.267 C -536.735 28.456 -526.177 33.078 -523.568 36.479 C -520.825 40.056 -518.623 49.066 -518.623 49.066 L -515.476 342.623 C -515.476 342.623 -683.842 340.679 -697.095 340.825 Z" fill="#000000" transform="matrix(1, 0, 0, 1, 2.2737367544323206e-13, 0)"/>
  <path style="fill: rgb(255, 222, 87); stroke-width: 6px; stroke: rgb(255, 222, 87);" d="M -914.056 -10.148 C -914.056 -10.148 -922.777 4.184 -922.427 3.483 C -922.077 2.782 -911.515 -3.433 -905.093 -4.568 C -841.022 -15.891 -715.891 -21.855 -715.891 -21.855 C -715.891 -21.855 -587.785 -14.846 -525.796 -4.642 C -520.079 -3.701 -513.608 3.553 -513.608 3.553 L -521.893 -12.022 C -521.893 -12.022 -532.489 -20.726 -539.333 -24.307 C -550.448 -30.123 -560.991 -34.992 -573.11 -38.231 C -587.908 -42.186 -603.859 -44.268 -619.079 -45.993 C -639.657 -48.325 -684.134 -50.226 -684.134 -50.226 C -684.134 -50.226 -684.331 -56.643 -685.876 -60.432 C -687.463 -64.323 -688.525 -69.125 -691.628 -71.838 C -695.073 -74.85 -699.443 -77.15 -703.88 -78.269 C -710.279 -79.883 -718.61 -79.634 -725.113 -78.511 C -728.622 -77.905 -731.017 -79.546 -736.906 -74.57 C -739.151 -72.673 -744.193 -69.129 -743.843 -69.129 C -743.69 -69.129 -746.768 -66.674 -748.451 -62.297 C -750.628 -56.636 -752.529 -49.331 -751.838 -49.331 C -750.612 -49.331 -772.896 -47.541 -772.896 -47.541 C -772.896 -47.541 -797.675 -46.544 -811.361 -45.329 C -824.754 -44.14 -848.324 -42.662 -857.184 -40.96 C -868.428 -38.8 -878.092 -34.192 -888.332 -29.722 C -897.475 -25.731 -914.056 -10.148 -914.056 -10.148 Z" transform="matrix(1, 0, 0, 1, 2.2737367544323206e-13, 0)"/>
  <path d="M -852.8 262.381 C -858 263.781 -861.9 266.281 -866.1 270.981 C -880.7 287.481 -867.6 314.981 -845.3 314.781 C -831.4 314.681 -820.5 304.281 -819.5 290.281 C -818.7 279.581 -824.5 268.981 -833.7 264.281 C -838.1 262.081 -847.9 261.081 -852.8 262.381 Z" style="fill: rgb(69, 132, 182);" fill="#000000" stroke="none" transform="matrix(1, 0, 0, 1, 2.2737367544323206e-13, 0)"/>
  <path d="M -599.8 263.081 C -609 266.481 -616.7 277.781 -616.7 287.981 C -616.7 308.081 -594.4 321.581 -577.3 311.881 C -566.7 305.881 -561.2 294.881 -563.3 283.781 C -565.1 273.981 -572 265.781 -581.2 262.681 C -585.8 261.081 -594.9 261.281 -599.8 263.081 Z" style="fill: rgb(69, 132, 182);" fill="#000000" stroke="none" transform="matrix(1, 0, 0, 1, 2.2737367544323206e-13, 0)"/>
  <path d="M -714.3 -22.919 C -716.8 -23.119 -884 -6.819 -892.8 -5.919 C -901.9 -5.019 -910.156 -3.178 -912.3 -2.719 C -937.547 2.679 -937.8 39.981 -937.8 39.981 C -937.8 39.981 -938.1 362.381 -937.3 368.981 C -935.8 380.181 -933.7 389.481 -932.4 390.781 C -931.8 391.381 -931.3 392.581 -931.3 393.481 C -931.3 394.281 -929.7 398.381 -927.8 402.381 C -917 424.781 -901.1 443.981 -881.6 458.081 C -870.5 466.081 -868.6 467.181 -855 473.481 C -847 477.181 -843.3 479.481 -843.3 480.581 C -843.3 482.881 -847.6 492.381 -850.8 497.081 C -852.3 499.181 -855.3 505.481 -855.3 505.481 L -1008.3 505.481 L -1008.3 559.781 L -424.3 558.481 L -424.3 505.481 C -424.3 505.481 -578.3 505.181 -579.4 504.281 C -581.1 502.881 -585.1 496.581 -590.7 486.281 L -594.3 479.581 L -592.1 478.081 C -590.9 477.181 -589.2 476.481 -588.5 476.481 C -587.7 476.481 -585.4 475.581 -583.4 474.581 C -581.4 473.481 -576.7 471.281 -573 469.581 C -569.3 467.881 -564.3 465.281 -562 463.681 C -559.7 461.981 -555.3 459.081 -552.2 457.081 C -528.6 441.881 -506.9 409.381 -499.7 378.481 C -496.5 364.681 -496.2 346.681 -496.6 192.481 C -496.9 55.081 -497.1 38.381 -498.5 32.981 C -505.6 6.881 -515.1 -3.319 -534.3 -5.019 C -538.4 -5.419 -551.2 -6.819 -562.8 -8.119 C -574.3 -9.419 -711.8 -22.719 -714.3 -22.919 Z M -754.702 32.52 C -750.773 34.08 -746 37.181 -744.1 39.481 C -736.9 47.881 -737.3 37.481 -737.3 197.581 L -737.3 341.481 L -916 341.481 C -916 341.481 -917.2 228.681 -917.3 165.881 L -917.5 51.781 L -915.4 46.881 C -911.7 38.581 -903.5 32.181 -894.4 30.581 C -892.5 30.281 -771.471 29.56 -771.471 29.56 C -771.471 29.56 -759.978 30.426 -754.702 32.52 Z M -531.4 33.481 C -526.2 36.081 -520.5 41.981 -518.2 46.981 C -516.4 50.781 -516.3 341.481 -516.3 341.481 L -697.3 341.481 L -697.3 197.181 C -697.3 102.181 -696.9 51.681 -696.3 49.281 C -694.6 43.381 -693.882 39.934 -690.223 36.336 C -687.773 33.926 -683.419 32.386 -679.8 30.981 C -671.719 27.843 -541.9 30.281 -539.6 30.681 C -537.3 31.081 -533.6 32.281 -531.4 33.481 Z M -635.1 492.881 C -632 499.481 -630.3 503.981 -630.7 505.081 C -631.3 506.581 -804.4 505.281 -804.9 503.981 C -805.4 502.681 -799.3 490.981 -794.8 484.681 L -793.2 482.481 L -716.7 482.481 L -640.2 482.481 L -635.1 492.881 Z" style="stroke-width: 6px; stroke: rgb(27, 49, 59); stroke-opacity: 0; fill: rgba(0, 0, 0, 0);" transform="matrix(1, 0, 0, 1, 2.2737367544323206e-13, 0)"/>
</svg>