<?xml version="1.0" encoding="utf-8"?>
<svg viewBox="-922.4371 -224.305 3213.998 657.387" width="3213.998" height="657.387" xmlns="http://www.w3.org/2000/svg">
  <path style="fill: rgb(255, 222, 87); stroke-width: 6px; stroke: rgb(255, 222, 87);" d="M -896.375 31.529 C -855.127 29.328 -781.166 30.765 -767.218 30.956 C -753.27 31.147 -751.589 32.602 -746.011 36.879 C -742.576 39.512 -740.133 44.015 -740.087 48.343 C -738.991 150.869 -739.132 342.96 -739.132 342.96 C -739.132 342.96 -918.156 342.769 -917.774 342.577 C -917.392 342.385 -919.969 147.52 -919.302 52.357 C -919.262 46.722 -915.762 40.746 -911.66 37.073 C -908.014 33.808 -901.381 31.796 -896.375 31.529 Z"/>
  <path d="M -821.7 -222.519 C -830.4 -219.119 -909.1 -21.119 -909.8 -20.019 C -910.4 -18.919 -913.762 -10.933 -913.762 -10.933 C -913.762 -10.933 -911.269 -11.91 -906.491 -16.119 C -897.948 -23.644 -878.8 -34.719 -864.8 -38.519 C -853.9 -41.519 -847.3 -42.319 -809.8 -44.919 C -768.7 -47.919 -750 -49.519 -749.4 -50.119 C -749.1 -50.319 -748.8 -52.819 -748.6 -55.519 C -748.2 -61.819 -745.6 -67.119 -740.4 -71.819 C -733.7 -77.919 -731 -78.819 -718.6 -79.319 C -705.8 -79.819 -700.7 -78.619 -694.2 -73.419 C -688.7 -69.119 -685.6 -63.219 -684.8 -55.919 L -684.1 -49.819 C -684.1 -49.819 -636.481 -46.549 -624.081 -45.749 C -594.381 -43.649 -584.964 -40.877 -573.337 -38.06 C -558.844 -34.548 -538.7 -25.719 -525.4 -14.919 L -522 -12.119 L -523.778 -17.28 C -524.378 -20.28 -592.2 -193.319 -593.3 -196.019 C -594.4 -198.819 -600.7 -213.519 -604 -216.619 C -612.3 -224.619 -602.6 -224.019 -715.8 -224.219 C -813.3 -224.419 -817 -224.419 -821.7 -222.519 Z M -617.8 -204.019 C -617.8 -204.019 -594.3 -94.619 -594.3 -94.219 C -594.3 -93.819 -839.2 -94.019 -839.2 -94.019 C -839.2 -94.019 -816.2 -200.819 -815.7 -202.819 C -815.2 -204.419 -809.8 -204.519 -716.5 -204.319 L -617.8 -204.019 Z" style="fill: rgb(100, 100, 100); stroke-linecap: round; stroke-width: 6px; stroke: rgba(0, 0, 0, 0.247);" fill="#000000"/>
  <path style="fill: rgb(255, 222, 87); stroke-width: 6px; stroke: rgb(255, 222, 87);" d="M -697.095 340.825 C -697.095 340.825 -697.095 51.314 -697.095 50.415 C -697.095 49.516 -692.951 37.808 -688.106 33.774 C -683.627 30.044 -671.92 28.387 -671.47 28.387 C -671.021 28.387 -590.801 26.075 -541.017 28.267 C -536.735 28.456 -526.177 33.078 -523.568 36.479 C -520.825 40.056 -518.623 49.066 -518.623 49.066 L -515.476 342.623 C -515.476 342.623 -683.842 340.679 -697.095 340.825 Z" fill="#000000"/>
  <path style="fill: rgb(255, 222, 87); stroke-width: 6px; stroke: rgb(255, 222, 87);" d="M -914.205 -10.148 C -914.205 -10.148 -922.771 4.184 -922.427 3.483 C -922.083 2.782 -911.709 -3.433 -905.402 -4.568 C -842.472 -15.891 -719.57 -21.855 -719.57 -21.855 C -719.57 -21.855 -593.746 -14.846 -532.861 -4.642 C -527.246 -3.701 -520.89 3.553 -520.89 3.553 L -529.027 -12.022 C -529.027 -12.022 -539.435 -20.726 -546.157 -24.307 C -557.074 -30.123 -567.429 -34.992 -579.332 -38.231 C -593.866 -42.186 -609.533 -44.268 -624.482 -45.993 C -644.694 -48.325 -688.378 -50.226 -688.378 -50.226 C -688.378 -50.226 -688.572 -56.643 -690.089 -60.432 C -691.648 -64.323 -692.691 -69.125 -695.739 -71.838 C -699.123 -74.85 -703.415 -77.15 -707.773 -78.269 C -714.058 -79.883 -722.24 -79.634 -728.628 -78.511 C -732.074 -77.905 -734.426 -79.546 -740.211 -74.57 C -742.416 -72.673 -747.368 -69.129 -747.024 -69.129 C -746.874 -69.129 -749.897 -66.674 -751.55 -62.297 C -753.688 -56.636 -755.555 -49.331 -754.877 -49.331 C -753.672 -49.331 -775.56 -47.541 -775.56 -47.541 C -775.56 -47.541 -799.897 -46.544 -813.339 -45.329 C -826.494 -44.14 -849.644 -42.662 -858.346 -40.96 C -869.39 -38.8 -878.882 -34.192 -888.939 -29.722 C -897.92 -25.731 -914.205 -10.148 -914.205 -10.148 Z"/>
  <path d="M -852.8 262.381 C -858 263.781 -861.9 266.281 -866.1 270.981 C -880.7 287.481 -867.6 314.981 -845.3 314.781 C -831.4 314.681 -820.5 304.281 -819.5 290.281 C -818.7 279.581 -824.5 268.981 -833.7 264.281 C -838.1 262.081 -847.9 261.081 -852.8 262.381 Z" style="fill: rgb(69, 132, 182);" fill="#000000" stroke="none"/>
  <path d="M -599.8 263.081 C -609 266.481 -616.7 277.781 -616.7 287.981 C -616.7 308.081 -594.4 321.581 -577.3 311.881 C -566.7 305.881 -561.2 294.881 -563.3 283.781 C -565.1 273.981 -572 265.781 -581.2 262.681 C -585.8 261.081 -594.9 261.281 -599.8 263.081 Z" style="fill: rgb(69, 132, 182);" fill="#000000" stroke="none"/>
  <path d="M -400.858 328.582 Q -407.358 328.582 -411.608 324.332 Q -415.858 320.082 -415.858 313.582 L -415.858 70.082 Q -415.858 63.082 -411.608 59.082 Q -407.358 55.082 -400.858 55.082 Q -393.858 55.082 -389.858 59.082 Q -385.858 63.082 -385.858 70.082 L -385.858 313.582 Q -385.858 320.082 -389.858 324.332 Q -393.858 328.582 -400.858 328.582 Z M -401.429 -2.418 Q -410.858 -2.418 -417.608 -9.254 Q -424.358 -16.091 -424.358 -25.918 Q -424.358 -37.418 -417.108 -43.168 Q -409.858 -48.918 -400.904 -48.918 Q -392.358 -48.918 -385.108 -43.168 Q -377.858 -37.418 -377.858 -25.918 Q -377.858 -16.091 -384.715 -9.254 Q -391.572 -2.418 -401.429 -2.418 Z M 70.626 328.582 Q 64.126 328.582 59.876 324.332 Q 55.626 320.082 55.626 313.582 L 55.626 169.082 Q 55.626 130.582 35.376 106.082 Q 15.126 81.582 -17.374 81.582 Q -51.874 81.582 -73.624 104.332 Q -95.374 127.082 -94.374 165.582 L -124.374 165.582 Q -123.374 131.082 -109.374 105.582 Q -95.374 80.082 -71.374 65.832 Q -47.374 51.582 -17.374 51.582 Q 13.126 51.582 36.126 66.582 Q 59.126 81.582 72.376 108.082 Q 85.626 134.582 85.626 169.082 L 85.626 313.582 Q 85.626 320.082 81.626 324.332 Q 77.626 328.582 70.626 328.582 Z M -290.874 328.582 Q -297.374 328.582 -301.624 324.332 Q -305.874 320.082 -305.874 313.582 L -305.874 70.082 Q -305.874 63.082 -301.624 59.082 Q -297.374 55.082 -290.874 55.082 Q -283.874 55.082 -279.874 59.082 Q -275.874 63.082 -275.874 70.082 L -275.874 313.582 Q -275.874 320.082 -279.874 324.332 Q -283.874 328.582 -290.874 328.582 Z M -109.374 328.582 Q -115.874 328.582 -120.124 324.332 Q -124.374 320.082 -124.374 313.582 L -124.374 169.082 Q -124.374 130.582 -144.624 106.082 Q -164.874 81.582 -197.374 81.582 Q -231.874 81.582 -253.874 103.582 Q -275.874 125.582 -275.874 160.582 L -300.874 160.582 Q -299.374 128.582 -285.624 104.082 Q -271.874 79.582 -248.874 65.582 Q -225.874 51.582 -197.374 51.582 Q -166.874 51.582 -143.874 66.582 Q -120.874 81.582 -107.624 108.082 Q -94.374 134.582 -94.374 169.082 L -94.374 313.582 Q -94.374 320.082 -98.374 324.332 Q -102.374 328.582 -109.374 328.582 Z M 340.612 328.582 Q 334.612 328.582 331.112 326.332 Q 327.612 324.082 323.612 319.082 L 237.612 205.082 L 225.112 195.582 L 137.612 80.082 Q 133.612 75.082 134.112 69.332 Q 134.612 63.582 138.612 59.332 Q 142.612 55.082 149.112 55.082 Q 155.612 55.082 160.112 59.582 L 243.612 170.582 L 257.112 181.082 L 349.612 304.082 Q 356.112 312.082 354.362 317.582 Q 352.612 323.082 348.112 325.832 Q 343.612 328.582 340.612 328.582 Z M 138.112 328.582 Q 131.612 328.582 127.612 324.582 Q 123.612 320.582 123.112 314.832 Q 122.612 309.082 126.612 304.082 L 223.612 183.582 L 241.112 205.582 L 148.612 324.082 Q 145.612 328.582 138.112 328.582 Z M 250.612 197.582 L 232.612 175.582 L 323.612 64.082 Q 327.612 59.582 331.362 57.332 Q 335.112 55.082 339.112 55.082 Q 346.112 55.082 349.612 59.332 Q 353.112 63.582 353.112 69.332 Q 353.112 75.082 349.112 80.082 Z M 400.621 111.082 Q 390.102 111.082 382.602 103.828 Q 375.102 96.573 375.102 85.582 Q 375.102 74.989 382.45 67.785 Q 389.797 60.582 400.602 60.582 Q 411.602 60.582 418.602 67.997 Q 425.602 75.412 425.602 85.582 Q 425.602 96.582 418.371 103.832 Q 411.139 111.082 400.621 111.082 Z M 399.102 336.582 Q 388.102 336.582 380.852 329.332 Q 373.602 322.082 373.602 311.082 Q 373.602 300.082 381.102 293.082 Q 388.602 286.082 399.102 286.082 Q 409.602 286.082 416.852 293.332 Q 424.102 300.582 424.102 311.082 Q 424.102 321.582 416.852 329.082 Q 409.602 336.582 399.102 336.582 Z M 499.124 328.582 Q 492.597 328.582 488.347 324.351 Q 484.097 320.12 484.097 313.582 L 484.097 -46.918 Q 484.097 -53.456 488.32 -57.687 Q 492.544 -61.918 499.07 -61.918 Q 505.597 -61.918 509.847 -57.687 Q 514.097 -53.456 514.097 -46.918 L 514.097 313.582 Q 514.097 320.12 509.874 324.351 Q 505.651 328.582 499.124 328.582 Z M 825.739 328.582 Q 819.094 328.582 814.844 324.24 Q 810.594 319.898 810.594 313.582 L 810.594 179.082 Q 810.594 145.868 797.925 124.439 Q 785.256 103.011 763.422 92.296 Q 741.588 81.582 714.094 81.582 Q 687.341 81.582 665.775 91.863 Q 644.208 102.144 631.651 120 Q 619.094 137.856 619.094 160.582 L 594.094 160.582 Q 596.094 129.582 612.594 104.832 Q 629.094 80.082 655.594 65.832 Q 682.094 51.582 714.094 51.582 Q 750.309 51.582 778.874 66.247 Q 807.438 80.911 824.016 109.247 Q 840.594 137.582 840.594 179.082 L 840.594 313.582 Q 840.594 319.898 836.294 324.24 Q 831.994 328.582 825.739 328.582 Z M 604.094 328.582 Q 597.594 328.582 593.344 324.437 Q 589.094 320.292 589.094 313.582 L 589.094 70.082 Q 589.094 63.159 593.344 59.12 Q 597.594 55.082 604.094 55.082 Q 611.094 55.082 615.094 59.12 Q 619.094 63.159 619.094 70.082 L 619.094 313.582 Q 619.094 320.292 615.094 324.437 Q 611.094 328.582 604.094 328.582 Z M 998.587 331.582 Q 972.587 331.582 944.087 322.082 Q 915.587 312.582 896.587 290.082 Q 892.587 285.082 893.337 279.332 Q 894.087 273.582 899.587 269.582 Q 904.587 266.082 910.337 267.082 Q 916.087 268.082 919.587 272.582 Q 934.087 289.582 954.837 296.332 Q 975.587 303.082 1000.087 303.082 Q 1042.087 303.082 1059.587 288.082 Q 1077.087 273.082 1077.087 253.082 Q 1077.087 233.582 1058.337 220.832 Q 1039.587 208.082 1000.587 202.582 Q 950.587 195.582 926.587 175.582 Q 902.587 155.582 902.587 129.082 Q 902.587 104.082 915.087 86.832 Q 927.587 69.582 949.337 60.832 Q 971.087 52.082 999.087 52.082 Q 1033.087 52.082 1056.587 64.332 Q 1080.087 76.582 1094.587 97.082 Q 1098.587 102.082 1097.337 107.832 Q 1096.087 113.582 1089.587 117.082 Q 1084.587 119.582 1079.087 118.582 Q 1073.587 117.582 1069.587 112.582 Q 1057.087 96.582 1039.337 88.332 Q 1021.587 80.082 998.087 80.082 Q 966.587 80.082 949.087 93.582 Q 931.587 107.082 931.587 126.082 Q 931.587 139.082 938.837 148.832 Q 946.087 158.582 962.587 165.332 Q 979.087 172.082 1006.587 176.082 Q 1044.087 181.082 1065.837 193.082 Q 1087.587 205.082 1096.837 220.832 Q 1106.087 236.582 1106.087 254.582 Q 1106.087 278.082 1091.087 295.582 Q 1076.087 313.082 1051.587 322.332 Q 1027.087 331.582 998.587 331.582 Z M 1178.572 328.582 Q 1172.072 328.582 1167.822 324.332 Q 1163.572 320.082 1163.572 313.582 L 1163.572 70.082 Q 1163.572 63.082 1167.822 59.082 Q 1172.072 55.082 1178.572 55.082 Q 1185.572 55.082 1189.572 59.082 Q 1193.572 63.082 1193.572 70.082 L 1193.572 313.582 Q 1193.572 320.082 1189.572 324.332 Q 1185.572 328.582 1178.572 328.582 Z M 1178 -2.418 Q 1168.572 -2.418 1161.822 -9.254 Q 1155.072 -16.091 1155.072 -25.918 Q 1155.072 -37.418 1162.322 -43.168 Q 1169.572 -48.918 1178.525 -48.918 Q 1187.072 -48.918 1194.322 -43.168 Q 1201.572 -37.418 1201.572 -25.918 Q 1201.572 -16.091 1194.714 -9.254 Q 1187.857 -2.418 1178 -2.418 Z M 1398.426 331.582 Q 1357.615 331.582 1326.102 313.582 Q 1294.589 295.582 1276.589 264.082 Q 1258.589 232.582 1258.589 192.082 Q 1258.589 151.082 1277.089 119.582 Q 1295.589 88.082 1327.339 70.082 Q 1359.089 52.082 1398.589 52.082 Q 1439.589 52.082 1470.839 70.082 Q 1502.089 88.082 1520.089 119.582 Q 1538.089 151.082 1538.089 192.082 L 1520.589 212.082 Q 1520.589 246.897 1504.998 273.949 Q 1489.407 301.001 1461.998 316.292 Q 1434.589 331.582 1398.426 331.582 Z M 1400.589 433.082 Q 1359.089 433.082 1329.839 417.582 Q 1300.589 402.082 1281.589 378.082 Q 1277.589 373.082 1277.589 367.582 Q 1277.589 362.082 1282.589 358.332 Q 1287.589 354.582 1294.339 355.582 Q 1301.089 356.582 1304.589 362.082 Q 1320.089 380.582 1344.089 392.832 Q 1368.089 405.082 1400.589 405.082 Q 1431.589 405.082 1455.839 390.082 Q 1480.089 375.082 1494.089 348.832 Q 1508.089 322.582 1508.089 290.082 L 1508.089 210.582 L 1521.589 192.082 L 1538.089 192.082 L 1538.089 290.082 Q 1538.089 330.724 1520.089 363.087 Q 1502.089 395.45 1471.089 414.266 Q 1440.089 433.082 1400.589 433.082 Z M 1398.612 303.582 Q 1430.589 303.582 1455.248 289.34 Q 1479.907 275.099 1493.998 249.84 Q 1508.089 224.582 1508.089 191.936 Q 1508.089 159.289 1493.993 133.868 Q 1479.897 108.447 1455.23 94.264 Q 1430.562 80.082 1398.575 80.082 Q 1366.589 80.082 1341.672 94.264 Q 1316.755 108.447 1302.672 133.868 Q 1288.589 159.289 1288.589 191.936 Q 1288.589 224.582 1302.68 249.84 Q 1316.772 275.099 1341.703 289.34 Q 1366.635 303.582 1398.612 303.582 Z M 1608.055 208.582 Q 1601.555 208.582 1597.305 204.351 Q 1593.055 200.12 1593.055 193.582 L 1593.055 -46.918 Q 1593.055 -53.841 1597.305 -57.88 Q 1601.555 -61.918 1608.055 -61.918 Q 1615.055 -61.918 1619.055 -57.88 Q 1623.055 -53.841 1623.055 -46.918 L 1623.055 193.582 Q 1623.055 200.12 1619.055 204.351 Q 1615.055 208.582 1608.055 208.582 Z M 1829.701 328.582 Q 1823.055 328.582 1818.805 324.24 Q 1814.555 319.898 1814.555 313.582 L 1814.555 179.082 Q 1814.555 145.868 1801.886 124.439 Q 1789.217 103.011 1767.384 92.296 Q 1745.55 81.582 1718.055 81.582 Q 1691.303 81.582 1669.736 91.863 Q 1648.17 102.144 1635.613 120 Q 1623.055 137.856 1623.055 160.582 L 1598.055 160.582 Q 1600.055 129.582 1616.555 104.832 Q 1633.055 80.082 1659.555 65.832 Q 1686.055 51.582 1718.055 51.582 Q 1754.271 51.582 1782.836 66.247 Q 1811.4 80.911 1827.978 109.247 Q 1844.555 137.582 1844.555 179.082 L 1844.555 313.582 Q 1844.555 319.898 1840.255 324.24 Q 1835.955 328.582 1829.701 328.582 Z M 1608.055 328.582 Q 1601.555 328.582 1597.305 324.437 Q 1593.055 320.292 1593.055 313.582 L 1593.055 70.082 Q 1593.055 63.159 1597.305 59.12 Q 1601.555 55.082 1608.055 55.082 Q 1615.055 55.082 1619.055 59.12 Q 1623.055 63.159 1623.055 70.082 L 1623.055 313.582 Q 1623.055 320.292 1619.055 324.437 Q 1615.055 328.582 1608.055 328.582 Z M 2021.549 328.582 Q 1994.049 328.082 1972.549 315.832 Q 1951.049 303.582 1939.049 281.832 Q 1927.049 260.082 1927.049 232.582 L 1927.049 -16.418 Q 1927.049 -23.174 1931.249 -27.546 Q 1935.449 -31.918 1942.249 -31.918 Q 1949.049 -31.918 1953.299 -27.546 Q 1957.549 -23.174 1957.549 -16.418 L 1957.549 232.582 Q 1957.549 261.379 1975.633 279.731 Q 1993.717 298.082 2022.049 298.082 L 2033.049 298.082 Q 2039.938 298.082 2044.244 302.403 Q 2048.549 306.725 2048.549 313.403 Q 2048.549 320.082 2044.299 324.332 Q 2040.049 328.582 2033.049 328.582 Z M 1888.049 92.082 Q 1882.263 92.082 1878.406 88.223 Q 1874.549 84.363 1874.549 78.676 Q 1874.549 72.582 1878.406 68.832 Q 1882.263 65.082 1888.049 65.082 L 2023.549 65.082 Q 2029.335 65.082 2033.192 68.832 Q 2037.049 72.582 2037.049 78.676 Q 2037.049 84.363 2033.192 88.223 Q 2029.335 92.082 2023.549 92.082 Z M 2184.061 331.582 Q 2158.061 331.582 2129.561 322.082 Q 2101.061 312.582 2082.061 290.082 Q 2078.061 285.082 2078.811 279.332 Q 2079.561 273.582 2085.061 269.582 Q 2090.061 266.082 2095.811 267.082 Q 2101.561 268.082 2105.061 272.582 Q 2119.561 289.582 2140.311 296.332 Q 2161.061 303.082 2185.561 303.082 Q 2227.561 303.082 2245.061 288.082 Q 2262.561 273.082 2262.561 253.082 Q 2262.561 233.582 2243.811 220.832 Q 2225.061 208.082 2186.061 202.582 Q 2136.061 195.582 2112.061 175.582 Q 2088.061 155.582 2088.061 129.082 Q 2088.061 104.082 2100.561 86.832 Q 2113.061 69.582 2134.811 60.832 Q 2156.561 52.082 2184.561 52.082 Q 2218.561 52.082 2242.061 64.332 Q 2265.561 76.582 2280.061 97.082 Q 2284.061 102.082 2282.811 107.832 Q 2281.561 113.582 2275.061 117.082 Q 2270.061 119.582 2264.561 118.582 Q 2259.061 117.582 2255.061 112.582 Q 2242.561 96.582 2224.811 88.332 Q 2207.061 80.082 2183.561 80.082 Q 2152.061 80.082 2134.561 93.582 Q 2117.061 107.082 2117.061 126.082 Q 2117.061 139.082 2124.311 148.832 Q 2131.561 158.582 2148.061 165.332 Q 2164.561 172.082 2192.061 176.082 Q 2229.561 181.082 2251.311 193.082 Q 2273.061 205.082 2282.311 220.832 Q 2291.561 236.582 2291.561 254.582 Q 2291.561 278.082 2276.561 295.582 Q 2261.561 313.082 2237.061 322.332 Q 2212.561 331.582 2184.061 331.582 Z" style="fill: rgb(255, 255, 255); stroke-linecap: round; stroke-miterlimit: 1; stroke-width: 14px;"/>
</svg>